YUUClockSemaphore.ufo
<glyph name="space" format="1">
  <advance width="951" height="-120"/>
  <unicode hex="0020"/>
  <outline>
    <contour>
      <point x="489" y="153" type="line" name="hr00"/>
      <point x="459" y="153" type="line"/>
      <point x="459" y="433" type="line"/>
      <point x="489" y="433" type="line"/>
    </contour>
    <contour>
      <point x="459" y="433" type="line"/>
      <point x="489" y="433" type="line"/>
      <point x="489" y="49" type="line"/>
      <point x="459" y="49" type="line"/>
    </contour>
    <contour>
      <point x="474" y="838" type="curve" smooth="yes"/>
      <point x="249" y="838"/>
      <point x="66" y="655"/>
      <point x="66" y="430" type="curve" smooth="yes"/>
      <point x="66" y="205"/>
      <point x="249" y="22"/>
      <point x="474" y="22" type="curve" smooth="yes"/>
      <point x="699" y="22"/>
      <point x="882" y="205"/>
      <point x="882" y="430" type="curve" smooth="yes"/>
      <point x="882" y="655"/>
      <point x="699" y="838"/>
    </contour>
    <contour>
      <point x="474" y="868" type="curve" smooth="yes"/>
      <point x="716" y="868"/>
      <point x="912" y="672"/>
      <point x="912" y="430" type="curve" smooth="yes"/>
      <point x="912" y="188"/>
      <point x="716" y="-8"/>
      <point x="474" y="-8" type="curve" smooth="yes"/>
      <point x="232" y="-8"/>
      <point x="36" y="188"/>
      <point x="36" y="430" type="curve" smooth="yes"/>
      <point x="36" y="672"/>
      <point x="232" y="868"/>
    </contour>
  </outline>
</glyph>
<glyph name="numbersign" format="1">
  <advance width="939" height="-120"/>
  <unicode hex="0023"/>
  <outline>
    <contour>
      <point x="731" y="713" type="line" name="hr00"/>
      <point x="753" y="691" type="line"/>
      <point x="481" y="420" type="line"/>
      <point x="460" y="441" type="line"/>
    </contour>
    <contour>
      <point x="489" y="433" type="line"/>
      <point x="459" y="433" type="line"/>
      <point x="459" y="714" type="line"/>
      <point x="489" y="714" type="line"/>
    </contour>
    <contour>
      <point x="474" y="838" type="curve" smooth="yes"/>
      <point x="249" y="838"/>
      <point x="66" y="655"/>
      <point x="66" y="430" type="curve" smooth="yes"/>
      <point x="66" y="205"/>
      <point x="249" y="22"/>
      <point x="474" y="22" type="curve" smooth="yes"/>
      <point x="699" y="22"/>
      <point x="882" y="205"/>
      <point x="882" y="430" type="curve" smooth="yes"/>
      <point x="882" y="655"/>
      <point x="699" y="838"/>
    </contour>
    <contour>
      <point x="474" y="868" type="curve" smooth="yes"/>
      <point x="716" y="868"/>
      <point x="912" y="672"/>
      <point x="912" y="430" type="curve" smooth="yes"/>
      <point x="912" y="188"/>
      <point x="716" y="-8"/>
      <point x="474" y="-8" type="curve" smooth="yes"/>
      <point x="232" y="-8"/>
      <point x="36" y="188"/>
      <point x="36" y="430" type="curve" smooth="yes"/>
      <point x="36" y="672"/>
      <point x="232" y="868"/>
    </contour>
  </outline>
</glyph>
<glyph name="four" format="1">
  <advance width="939" height="-120"/>
  <unicode hex="0034"/>
  <outline>
    <contour>
      <point x="452" y="634" type="line" name="hr00"/>
      <point x="482" y="634" type="line"/>
      <point x="482" y="430" type="line"/>
      <point x="452" y="430" type="line"/>
    </contour>
    <contour>
      <point x="467" y="838" type="curve" smooth="yes"/>
      <point x="242" y="838"/>
      <point x="59" y="655"/>
      <point x="59" y="430" type="curve" smooth="yes"/>
      <point x="59" y="205"/>
      <point x="242" y="22"/>
      <point x="467" y="22" type="curve" smooth="yes"/>
      <point x="692" y="22"/>
      <point x="875" y="205"/>
      <point x="875" y="430" type="curve" smooth="yes"/>
      <point x="875" y="655"/>
      <point x="692" y="838"/>
    </contour>
    <contour>
      <point x="467" y="868" type="curve" smooth="yes"/>
      <point x="709" y="868"/>
      <point x="905" y="672"/>
      <point x="905" y="430" type="curve" smooth="yes"/>
      <point x="905" y="188"/>
      <point x="709" y="-8"/>
      <point x="467" y="-8" type="curve" smooth="yes"/>
      <point x="225" y="-8"/>
      <point x="29" y="188"/>
      <point x="29" y="430" type="curve" smooth="yes"/>
      <point x="29" y="672"/>
      <point x="225" y="868"/>
    </contour>
    <contour>
      <point x="452" y="430" type="line"/>
      <point x="482" y="430" type="line"/>
      <point x="482" y="91" type="line"/>
      <point x="452" y="91" type="line"/>
    </contour>
  </outline>
</glyph>
<glyph name="nine" format="1">
  <advance width="939" height="-120"/>
  <unicode hex="0039"/>
  <outline>
    <contour>
      <point x="332" y="583" type="line" name="hr00"/>
      <point x="311" y="562" type="line"/>
      <point x="455" y="418" type="line"/>
      <point x="476" y="439" type="line"/>
    </contour>
    <contour>
      <point x="217" y="201" type="line"/>
      <point x="238" y="180" type="line"/>
      <point x="478" y="420" type="line"/>
      <point x="456" y="441" type="line"/>
    </contour>
    <contour>
      <point x="467" y="838" type="curve" smooth="yes"/>
      <point x="242" y="838"/>
      <point x="59" y="655"/>
      <point x="59" y="430" type="curve" smooth="yes"/>
      <point x="59" y="205"/>
      <point x="242" y="22"/>
      <point x="467" y="22" type="curve" smooth="yes"/>
      <point x="692" y="22"/>
      <point x="875" y="205"/>
      <point x="875" y="430" type="curve" smooth="yes"/>
      <point x="875" y="655"/>
      <point x="692" y="838"/>
    </contour>
    <contour>
      <point x="467" y="868" type="curve" smooth="yes"/>
      <point x="709" y="868"/>
      <point x="905" y="672"/>
      <point x="905" y="430" type="curve" smooth="yes"/>
      <point x="905" y="188"/>
      <point x="709" y="-8"/>
      <point x="467" y="-8" type="curve" smooth="yes"/>
      <point x="225" y="-8"/>
      <point x="29" y="188"/>
      <point x="29" y="430" type="curve" smooth="yes"/>
      <point x="29" y="672"/>
      <point x="225" y="868"/>
    </contour>
  </outline>
</glyph>
<glyph name="S" format="1">
  <advance width="939" height="-120"/>
  <unicode hex="0053"/>
  <outline>
    <contour>
      <point x="270" y="445" type="line" name="hr00"/>
      <point x="270" y="415" type="line"/>
      <point x="474" y="415" type="line"/>
      <point x="474" y="445" type="line"/>
    </contour>
    <contour>
      <point x="724" y="201" type="line"/>
      <point x="703" y="180" type="line"/>
      <point x="464" y="420" type="line"/>
      <point x="485" y="441" type="line"/>
    </contour>
    <contour>
      <point x="474" y="838" type="curve" smooth="yes"/>
      <point x="249" y="838"/>
      <point x="66" y="655"/>
      <point x="66" y="430" type="curve" smooth="yes"/>
      <point x="66" y="205"/>
      <point x="249" y="22"/>
      <point x="474" y="22" type="curve" smooth="yes"/>
      <point x="699" y="22"/>
      <point x="882" y="205"/>
      <point x="882" y="430" type="curve" smooth="yes"/>
      <point x="882" y="655"/>
      <point x="699" y="838"/>
    </contour>
    <contour>
      <point x="474" y="868" type="curve" smooth="yes"/>
      <point x="716" y="868"/>
      <point x="912" y="672"/>
      <point x="912" y="430" type="curve" smooth="yes"/>
      <point x="912" y="188"/>
      <point x="716" y="-8"/>
      <point x="474" y="-8" type="curve" smooth="yes"/>
      <point x="232" y="-8"/>
      <point x="36" y="188"/>
      <point x="36" y="430" type="curve" smooth="yes"/>
      <point x="36" y="672"/>
      <point x="232" y="868"/>
    </contour>
  </outline>
</glyph>
<glyph name="T" format="1">
  <advance width="939" height="-120"/>
  <unicode hex="0054"/>
  <outline>
    <contour>
      <point x="339" y="583" type="line" name="hr00"/>
      <point x="318" y="562" type="line"/>
      <point x="462" y="418" type="line"/>
      <point x="483" y="439" type="line"/>
    </contour>
    <contour>
      <point x="474" y="838" type="curve" smooth="yes"/>
      <point x="249" y="838"/>
      <point x="66" y="655"/>
      <point x="66" y="430" type="curve" smooth="yes"/>
      <point x="66" y="205"/>
      <point x="249" y="22"/>
      <point x="474" y="22" type="curve" smooth="yes"/>
      <point x="699" y="22"/>
      <point x="882" y="205"/>
      <point x="882" y="430" type="curve" smooth="yes"/>
      <point x="882" y="655"/>
      <point x="699" y="838"/>
    </contour>
    <contour>
      <point x="474" y="868" type="curve" smooth="yes"/>
      <point x="716" y="868"/>
      <point x="912" y="672"/>
      <point x="912" y="430" type="curve" smooth="yes"/>
      <point x="912" y="188"/>
      <point x="716" y="-8"/>
      <point x="474" y="-8" type="curve" smooth="yes"/>
      <point x="232" y="-8"/>
      <point x="36" y="188"/>
      <point x="36" y="430" type="curve" smooth="yes"/>
      <point x="36" y="672"/>
      <point x="232" y="868"/>
    </contour>
    <contour>
      <point x="459" y="769" type="line"/>
      <point x="489" y="769" type="line"/>
      <point x="489" y="430" type="line"/>
      <point x="459" y="430" type="line"/>
    </contour>
  </outline>
</glyph>
<glyph name="X" format="1">
  <advance width="939" height="-120"/>
  <unicode hex="0058"/>
  <outline>
    <contour>
      <point x="608" y="585" type="line" name="hr00"/>
      <point x="629" y="564" type="line"/>
      <point x="484" y="419" type="line"/>
      <point x="463" y="440" type="line"/>
    </contour>
    <contour>
      <point x="724" y="201" type="line"/>
      <point x="703" y="180" type="line"/>
      <point x="464" y="420" type="line"/>
      <point x="485" y="441" type="line"/>
    </contour>
    <contour>
      <point x="474" y="838" type="curve" smooth="yes"/>
      <point x="249" y="838"/>
      <point x="66" y="655"/>
      <point x="66" y="430" type="curve" smooth="yes"/>
      <point x="66" y="205"/>
      <point x="249" y="22"/>
      <point x="474" y="22" type="curve" smooth="yes"/>
      <point x="699" y="22"/>
      <point x="882" y="205"/>
      <point x="882" y="430" type="curve" smooth="yes"/>
      <point x="882" y="655"/>
      <point x="699" y="838"/>
    </contour>
    <contour>
      <point x="474" y="868" type="curve" smooth="yes"/>
      <point x="716" y="868"/>
      <point x="912" y="672"/>
      <point x="912" y="430" type="curve" smooth="yes"/>
      <point x="912" y="188"/>
      <point x="716" y="-8"/>
      <point x="474" y="-8" type="curve" smooth="yes"/>
      <point x="232" y="-8"/>
      <point x="36" y="188"/>
      <point x="36" y="430" type="curve" smooth="yes"/>
      <point x="36" y="672"/>
      <point x="232" y="868"/>
    </contour>
  </outline>
</glyph>
<glyph name="Z" format="1">
  <advance width="939" height="-120"/>
  <unicode hex="005A"/>
  <outline>
    <contour>
      <point x="627" y="295" type="line" name="hr00"/>
      <point x="606" y="274" type="line"/>
      <point x="462" y="418" type="line"/>
      <point x="483" y="439" type="line"/>
    </contour>
    <contour>
      <point x="813" y="445" type="line"/>
      <point x="813" y="415" type="line"/>
      <point x="474" y="415" type="line"/>
      <point x="474" y="445" type="line"/>
    </contour>
    <contour>
      <point x="474" y="838" type="curve" smooth="yes"/>
      <point x="249" y="838"/>
      <point x="66" y="655"/>
      <point x="66" y="430" type="curve" smooth="yes"/>
      <point x="66" y="205"/>
      <point x="249" y="22"/>
      <point x="474" y="22" type="curve" smooth="yes"/>
      <point x="699" y="22"/>
      <point x="882" y="205"/>
      <point x="882" y="430" type="curve" smooth="yes"/>
      <point x="882" y="655"/>
      <point x="699" y="838"/>
    </contour>
    <contour>
      <point x="474" y="868" type="curve" smooth="yes"/>
      <point x="716" y="868"/>
      <point x="912" y="672"/>
      <point x="912" y="430" type="curve" smooth="yes"/>
      <point x="912" y="188"/>
      <point x="716" y="-8"/>
      <point x="474" y="-8" type="curve" smooth="yes"/>
      <point x="232" y="-8"/>
      <point x="36" y="188"/>
      <point x="36" y="430" type="curve" smooth="yes"/>
      <point x="36" y="672"/>
      <point x="232" y="868"/>
    </contour>
  </outline>
</glyph>
<glyph name="a" format="1">
  <advance width="939" height="-120"/>
  <unicode hex="0061"/>
  <outline>
    <contour>
      <point x="319" y="296" type="line" name="hr00"/>
      <point x="340" y="275" type="line"/>
      <point x="485" y="420" type="line"/>
      <point x="463" y="441" type="line"/>
    </contour>
    <contour>
      <point x="459" y="430" type="line"/>
      <point x="489" y="430" type="line"/>
      <point x="489" y="91" type="line"/>
      <point x="459" y="91" type="line"/>
    </contour>
  </outline>
</glyph>
<glyph name="b" format="1">
  <advance width="939" height="-120"/>
  <unicode hex="0062"/>
  <outline>
    <contour>
      <point x="270" y="445" type="line" name="hr00"/>
      <point x="270" y="415" type="line"/>
      <point x="474" y="415" type="line"/>
      <point x="474" y="445" type="line"/>
    </contour>
    <contour>
      <point x="459" y="430" type="line"/>
      <point x="489" y="430" type="line"/>
      <point x="489" y="91" type="line"/>
      <point x="459" y="91" type="line"/>
    </contour>
  </outline>
</glyph>
<glyph name="f" format="1">
  <advance width="939" height="-120"/>
  <unicode hex="0066"/>
  <outline>
    <contour>
      <point x="459" y="430" type="line" name="hr00"/>
      <point x="489" y="430" type="line"/>
      <point x="489" y="226" type="line"/>
      <point x="459" y="226" type="line"/>
    </contour>
    <contour>
      <point x="813" y="445" type="line"/>
      <point x="813" y="415" type="line"/>
      <point x="474" y="415" type="line"/>
      <point x="474" y="445" type="line"/>
    </contour>
  </outline>
</glyph>
<glyph name="h" format="1">
  <advance width="939" height="-120"/>
  <unicode hex="0068"/>
  <outline>
    <contour>
      <point x="270" y="445" type="line" name="hr00"/>
      <point x="270" y="415" type="line"/>
      <point x="474" y="415" type="line"/>
      <point x="474" y="445" type="line"/>
    </contour>
    <contour>
      <point x="224" y="201" type="line"/>
      <point x="245" y="180" type="line"/>
      <point x="485" y="420" type="line"/>
      <point x="463" y="441" type="line"/>
    </contour>
  </outline>
</glyph>
<glyph name="i" format="1">
  <advance width="939" height="-120"/>
  <unicode hex="0069"/>
  <outline>
    <contour>
      <point x="339" y="583" type="line" name="hr00"/>
      <point x="318" y="562" type="line"/>
      <point x="462" y="418" type="line"/>
      <point x="483" y="439" type="line"/>
    </contour>
    <contour>
      <point x="224" y="201" type="line"/>
      <point x="245" y="180" type="line"/>
      <point x="485" y="420" type="line"/>
      <point x="463" y="441" type="line"/>
    </contour>
  </outline>
</glyph>
<glyph name="l" format="1">
  <advance width="939" height="-120"/>
  <unicode hex="006C"/>
  <outline>
    <contour>
      <point x="319" y="296" type="line" name="hr00"/>
      <point x="340" y="275" type="line"/>
      <point x="485" y="420" type="line"/>
      <point x="463" y="441" type="line"/>
    </contour>
    <contour>
      <point x="703" y="680" type="line"/>
      <point x="724" y="659" type="line"/>
      <point x="485" y="420" type="line"/>
      <point x="464" y="441" type="line"/>
    </contour>
  </outline>
</glyph>
<glyph name="n" format="1">
  <advance width="939" height="-120"/>
  <unicode hex="006E"/>
  <outline>
    <contour>
      <point x="319" y="296" type="line" name="hr00"/>
      <point x="340" y="275" type="line"/>
      <point x="485" y="420" type="line"/>
      <point x="463" y="441" type="line"/>
    </contour>
    <contour>
      <point x="724" y="201" type="line"/>
      <point x="703" y="180" type="line"/>
      <point x="464" y="420" type="line"/>
      <point x="485" y="441" type="line"/>
    </contour>
  </outline>
</glyph>
<glyph name="o" format="1">
  <advance width="939" height="-120"/>
  <unicode hex="006F"/>
  <outline>
    <contour>
      <point x="270" y="445" type="line" name="hr00"/>
      <point x="270" y="415" type="line"/>
      <point x="474" y="415" type="line"/>
      <point x="474" y="445" type="line"/>
    </contour>
    <contour>
      <point x="245" y="680" type="line"/>
      <point x="224" y="659" type="line"/>
      <point x="463" y="420" type="line"/>
      <point x="484" y="441" type="line"/>
    </contour>
  </outline>
</glyph>
<glyph name="r" format="1">
  <advance width="939" height="-120"/>
  <unicode hex="0072"/>
  <outline>
    <contour>
      <point x="270" y="445" type="line" name="hr00"/>
      <point x="270" y="415" type="line"/>
      <point x="474" y="415" type="line"/>
      <point x="474" y="445" type="line"/>
    </contour>
    <contour>
      <point x="813" y="445" type="line"/>
      <point x="813" y="415" type="line"/>
      <point x="474" y="415" type="line"/>
      <point x="474" y="445" type="line"/>
    </contour>
  </outline>
</glyph>
<glyph name="s" format="1">
  <advance width="939" height="-120"/>
  <unicode hex="0073"/>
  <outline>
    <contour>
      <point x="270" y="445" type="line" name="hr00"/>
      <point x="270" y="415" type="line"/>
      <point x="474" y="415" type="line"/>
      <point x="474" y="445" type="line"/>
    </contour>
    <contour>
      <point x="724" y="201" type="line"/>
      <point x="703" y="180" type="line"/>
      <point x="464" y="420" type="line"/>
      <point x="485" y="441" type="line"/>
    </contour>
  </outline>
</glyph>
<glyph name="t" format="1">
  <advance width="939" height="-120"/>
  <unicode hex="0074"/>
  <outline>
    <contour>
      <point x="339" y="583" type="line" name="hr00"/>
      <point x="318" y="562" type="line"/>
      <point x="462" y="418" type="line"/>
      <point x="483" y="439" type="line"/>
    </contour>
    <contour>
      <point x="459" y="769" type="line"/>
      <point x="489" y="769" type="line"/>
      <point x="489" y="430" type="line"/>
      <point x="459" y="430" type="line"/>
    </contour>
  </outline>
</glyph>
<glyph name="u" format="1">
  <advance width="939" height="-120"/>
  <unicode hex="0075"/>
  <outline>
    <contour>
      <point x="339" y="583" type="line" name="hr00"/>
      <point x="318" y="562" type="line"/>
      <point x="462" y="418" type="line"/>
      <point x="483" y="439" type="line"/>
    </contour>
    <contour>
      <point x="703" y="680" type="line"/>
      <point x="724" y="659" type="line"/>
      <point x="485" y="420" type="line"/>
      <point x="464" y="441" type="line"/>
    </contour>
  </outline>
</glyph>
<glyph name="v" format="1">
  <advance width="939" height="-120"/>
  <unicode hex="0076"/>
  <outline>
    <contour>
      <point x="459" y="634" type="line" name="hr00"/>
      <point x="489" y="634" type="line"/>
      <point x="489" y="430" type="line"/>
      <point x="459" y="430" type="line"/>
    </contour>
    <contour>
      <point x="724" y="201" type="line"/>
      <point x="703" y="180" type="line"/>
      <point x="464" y="420" type="line"/>
      <point x="485" y="441" type="line"/>
    </contour>
  </outline>
</glyph>
<glyph name="w" format="1">
  <advance width="939" height="-120"/>
  <unicode hex="0077"/>
  <outline>
    <contour>
      <point x="608" y="585" type="line" name="hr00"/>
      <point x="629" y="564" type="line"/>
      <point x="484" y="419" type="line"/>
      <point x="463" y="440" type="line"/>
    </contour>
    <contour>
      <point x="813" y="445" type="line"/>
      <point x="813" y="415" type="line"/>
      <point x="474" y="415" type="line"/>
      <point x="474" y="445" type="line"/>
    </contour>
  </outline>
</glyph>
<glyph name="x" format="1">
  <advance width="939" height="-120"/>
  <unicode hex="0078"/>
  <outline>
    <contour>
      <point x="608" y="585" type="line" name="hr00"/>
      <point x="629" y="564" type="line"/>
      <point x="484" y="419" type="line"/>
      <point x="463" y="440" type="line"/>
    </contour>
    <contour>
      <point x="724" y="201" type="line"/>
      <point x="703" y="180" type="line"/>
      <point x="464" y="420" type="line"/>
      <point x="485" y="441" type="line"/>
    </contour>
  </outline>
</glyph>
<glyph name="y" format="1">
  <advance width="939" height="-120"/>
  <unicode hex="0079"/>
  <outline>
    <contour>
      <point x="339" y="583" type="line" name="hr00"/>
      <point x="318" y="562" type="line"/>
      <point x="462" y="418" type="line"/>
      <point x="483" y="439" type="line"/>
    </contour>
    <contour>
      <point x="813" y="445" type="line"/>
      <point x="813" y="415" type="line"/>
      <point x="474" y="415" type="line"/>
      <point x="474" y="445" type="line"/>
    </contour>
  </outline>
</glyph>
